<svg xmlns="http://www.w3.org/2000/svg" viewBox="0 0 115.45 44.1"><defs><style>.cls-1{fill:#fff;}</style></defs><title>logo_hepta</title><g id="Camada_2" data-name="Camada 2"><g id="Camada_1-2" data-name="Camada 1"><path class="cls-1" d="M60.36,29.48V13.87h1.57v5.6a3.93,3.93,0,0,1,1.25-1.17,3.19,3.19,0,0,1,1.54-.38,3,3,0,0,1,2.33.94,5.16,5.16,0,0,1,.86,3.45v7.17H66.35V22.31a3.42,3.42,0,0,0-.52-2.11,1.77,1.77,0,0,0-1.44-.63,2.22,2.22,0,0,0-1.74.82,4.43,4.43,0,0,0-.72,2.9v6.19Z"/><path class="cls-1" d="M79.71,25.84l1.62.24a4.92,4.92,0,0,1-1.46,2.73,3.84,3.84,0,0,1-2.63.92,3.92,3.92,0,0,1-3.18-1.49,6.66,6.66,0,0,1-1.22-4.32,7,7,0,0,1,1.23-4.47,3.82,3.82,0,0,1,3.11-1.53,3.68,3.68,0,0,1,3,1.51,6.87,6.87,0,0,1,1.21,4.37l0,.51H74.46a4.85,4.85,0,0,0,.88,2.88,2.4,2.4,0,0,0,1.92,1c1.17,0,2-.78,2.45-2.32m-5.16-3.1h5.17a4.36,4.36,0,0,0-.62-2.19,2.28,2.28,0,0,0-3.73-.18,3.86,3.86,0,0,0-.82,2.37"/><path class="cls-1" d="M86.4,33.81V18.17h1.44v1.47A3.77,3.77,0,0,1,89,18.32a2.77,2.77,0,0,1,1.49-.4,3.22,3.22,0,0,1,2,.65,4.43,4.43,0,0,1,1.42,2,8.45,8.45,0,0,1,.54,3.19,7.15,7.15,0,0,1-1.21,4.44,3.54,3.54,0,0,1-2.84,1.56,2.59,2.59,0,0,1-1.35-.37A3.5,3.5,0,0,1,88,28.31v5.5Zm1.42-9.92a5.64,5.64,0,0,0,.74,3.23,2,2,0,0,0,3.52,0,5.75,5.75,0,0,0,.76-3.32,5.83,5.83,0,0,0-.74-3.28,2.11,2.11,0,0,0-1.78-1.06,2.15,2.15,0,0,0-1.72,1.14,5.89,5.89,0,0,0-.78,3.33"/><path class="cls-1" d="M102.91,27.76l.21,1.7a4.85,4.85,0,0,1-1.17.17,2.35,2.35,0,0,1-1.32-.33,1.61,1.61,0,0,1-.69-.89,8.84,8.84,0,0,1-.18-2.24V19.66H98.6V18.17h1.16v-2.8l1.56-1.15v4h1.59v1.49h-1.59v6.61a2.92,2.92,0,0,0,.14,1.18.76.76,0,0,0,.75.39,4.39,4.39,0,0,0,.7-.08"/><path class="cls-1" d="M113.49,28.08a5.88,5.88,0,0,1-1.63,1.24,4,4,0,0,1-1.77.41,3.09,3.09,0,0,1-2.31-.87,3.18,3.18,0,0,1-.86-2.35,3.63,3.63,0,0,1,.4-1.74,3,3,0,0,1,1.11-1.18,6,6,0,0,1,2.13-.63,12.15,12.15,0,0,0,2.81-.67V21.8a2.47,2.47,0,0,0-.42-1.63,2.26,2.26,0,0,0-1.8-.68,2.49,2.49,0,0,0-1.64.46,3,3,0,0,0-.8,1.7l-1.54-.25a4.27,4.27,0,0,1,1.34-2.65,4.38,4.38,0,0,1,2.88-.83,4.19,4.19,0,0,1,2.29.54,2.35,2.35,0,0,1,1,1.36,9.43,9.43,0,0,1,.22,2.36v2.56c0,1.79,0,2.92.1,3.38a5.16,5.16,0,0,0,.4,1.36h-1.64a4.89,4.89,0,0,1-.32-1.4m-.12-4.28a9.77,9.77,0,0,1-2.57.73,4.88,4.88,0,0,0-1.38.38,1.52,1.52,0,0,0-.61.62,1.87,1.87,0,0,0-.22.92,1.72,1.72,0,0,0,.5,1.3,1.9,1.9,0,0,0,1.38.48A2.81,2.81,0,0,0,112,27.8a2.77,2.77,0,0,0,1-1.17,5.31,5.31,0,0,0,.34-2.12Z"/><path class="cls-1" d="M70.84,23.48a.67.67,0,1,1-.67-.67.67.67,0,0,1,.67.67"/><path class="cls-1" d="M84.26,23.48a.67.67,0,1,1-.67-.67.67.67,0,0,1,.67.67"/><path class="cls-1" d="M97.52,23.48a.67.67,0,1,1-.67-.67.67.67,0,0,1,.67.67"/><path class="cls-1" d="M106,23.48a.67.67,0,1,1-.67-.67.67.67,0,0,1,.67.67"/><rect class="cls-1" x="25.9" y="0.75" width="16.01" height="16" transform="translate(-0.69 3.36) rotate(-5.62)"/><rect class="cls-1" x="15.44" y="25.58" width="16.01" height="16.01" transform="translate(-16.68 41.79) rotate(-66.65)"/><polygon class="cls-1" points="31.57 34.07 30.47 36.22 2.86 36.22 12.39 5.39 23.59 5.39 26.17 15.35 24.98 3.29 10.84 3.29 0 38.33 29.73 38.33 31.57 34.07"/><polygon class="cls-1" points="25.67 3.29 25.88 5.39 53.02 5.39 43.6 36.22 33.06 36.22 33.8 30.65 30.48 38.33 45.16 38.33 55.87 3.29 25.67 3.29"/></g></g></svg>